<?xml version="1.0" encoding="UTF-8" standalone="no"?>
<!--
  This SVG file was generated using Material3 icons, https://fonts.google.com/icons. It is a combination
  of the trophy non-filled icon at optical size 40px and weight 200, and the groups filled icon at optical
  size 20px.
-->

<svg height="40" viewBox="0 -960 960 960" width="40" id="svg4" xml:space="preserve"
  xmlns:sodipodi="http://sodipodi.sourceforge.net/DTD/sodipodi-0.dtd"
  xmlns="http://www.w3.org/2000/svg"
  xmlns:svg="http://www.w3.org/2000/svg">
  <path d="m 480.23351,-605.44652 q -12.47169,0 -21.20187,-8.73018 -8.73018,-8.73018 -8.73018,-21.20187 0,-12.47168 8.73018,-21.20186 8.73018,-8.73019 21.20187,-8.73019 12.47168,0 21.20186,8.73019 8.73018,8.73018 8.73018,21.20186 0,12.47169 -8.73018,21.20187 -8.73018,8.73018 -21.20186,8.73018 z m -59.8641,59.86409 v -19.95469 q 0,-4.78082 2.59827,-9.04198 2.59827,-4.26116 7.17122,-7.17121 11.43238,-6.65157 24.21586,-10.18522 12.78347,-3.53364 25.87875,-3.53364 13.09527,0 25.87874,3.53364 12.78349,3.53365 24.21586,10.18522 4.57295,2.70219 7.17122,7.06728 2.59827,4.36509 2.59827,9.14591 v 19.95469 z" id="path454" style="stroke-width:0.5" />
  <path d="m 363.74121,-545.58243 v -15.3705 q 0,-10.51668 10.51667,-16.98847 10.51667,-6.47179 28.3141,-6.47179 3.77521,0 7.01111,0.26966 3.23589,0.26965 6.20214,0.80897 -3.2359,4.85385 -4.98868,10.54741 -1.75278,5.69248 -1.75278,11.56455 v 15.64017 z m 58.24615,0 v -15.64017 q 0,-7.55042 3.91004,-13.48291 3.91004,-5.93247 11.73013,-10.51666 7.82008,-4.58419 18.60641,-6.74145 10.78633,-2.15726 24.13305,-2.15726 13.34943,0 24.00092,2.15726 10.6515,2.15726 18.47158,6.74145 7.82008,4.31453 11.73013,10.43254 3.91004,6.118 3.91004,13.56703 v 15.64017 z m 129.43589,0 v -15.64017 q 0,-5.93248 -1.75278,-11.46046 -1.75278,-5.528 -4.98868,-10.6515 2.42692,-0.53932 5.52799,-0.80897 3.10107,-0.26966 7.68526,-0.26966 17.79743,0 28.31409,6.47179 10.51667,6.47179 10.51667,16.98847 v 15.3705 z m -148.85127,-51.77435 q -8.08974,0 -13.75257,-5.66282 -5.66282,-5.66282 -5.66282,-13.75256 0,-8.08975 5.66282,-13.75257 5.66283,-5.66281 13.75257,-5.66281 8.08974,0 13.75256,5.66281 5.66282,5.66282 5.66282,13.75257 0,8.08974 -5.66282,13.75256 -5.66282,5.66282 -13.75256,5.66282 z m 155.32306,0 q -8.08975,0 -13.75257,-5.66282 -5.66281,-5.66282 -5.66281,-13.75256 0,-8.08975 5.66281,-13.75257 5.66282,-5.66281 13.75257,-5.66281 8.08974,0 13.75256,5.66281 5.66282,5.66282 5.66282,13.75257 0,8.08974 -5.66282,13.75256 -5.66282,5.66282 -13.75256,5.66282 z m -77.66153,-9.70769 q -12.13462,0 -20.62885,-8.50017 -8.49423,-8.49962 -8.49423,-20.64179 0,-12.11573 8.49962,-20.60996 8.4999,-8.49423 20.64233,-8.49423 12.11575,0 20.60997,8.50771 8.49423,8.50771 8.49423,20.61537 0,12.1346 -8.50771,20.62884 -8.50772,8.49423 -20.61536,8.49423 z" id="path463" style="stroke-width:0.5" />
  <path d="m 323.30775,-120 v -38.07675 h 137.65388 v -177.1155 q -60.894,-10.64363 -106.68713,-51.44738 -45.79425,-40.80262 -62.23613,-100.9755 -71.2215,-8.2215 -121.63049,-56.72587 Q 120,-592.8465 120,-662.538 v -46.84725 q 0,-14.97038 11.26462,-26.523 11.26351,-11.55375 26.81213,-11.55375 h 127.6155 V -840 h 388.6155 v 92.538 H 801.9233 q 15.54862,0 26.81212,11.55375 11.26462,11.55262 11.26462,26.523 v 46.84725 q 0,69.6915 -50.40787,118.197 -50.40904,48.50437 -121.63054,56.72587 -16.44188,60.17288 -62.23613,100.9755 -45.79313,40.80375 -106.68713,51.44738 v 177.1155 H 636.69225 V -120 Z m -37.6155,-407.8845 v -181.50075 h -127.6155 v 46.84725 q 0,53.19225 37.00912,91.197 37.01025,38.00475 90.60638,43.4565 z M 480,-372.981 q 64.67287,0 109.58625,-45 44.91337,-45 44.91337,-109.67288 V -801.92325 H 325.50037 v 274.26937 q 0,64.67288 44.91338,109.67288 44.91337,45 109.58625,45 z m 194.30775,-154.9035 q 53.59612,-5.45175 90.60642,-43.4565 37.00913,-38.00475 37.00913,-91.197 v -46.84725 H 674.30775 Z M 480,-587.53875 Z" id="path235" style="stroke-width:1" />
</svg>