<?xml version="1.0" encoding="UTF-8" standalone="no"?>
<!--
  This SVG file was generated using Material3 icons, https://fonts.google.com/icons. It is a combination
  of the trophy non-filled icon at optical size 40px and weight 200, and the user filled icon at optical
  size 20px.
-->

<svg height="40" viewBox="0 -960 960 960" width="40" version="1.1" id="svg4" xml:space="preserve"
  xmlns="http://www.w3.org/2000/svg"
  xmlns:svg="http://www.w3.org/2000/svg">
  <path d="m 480.23351,-605.44652 q -12.47169,0 -21.20187,-8.73018 -8.73018,-8.73018 -8.73018,-21.20187 0,-12.47168 8.73018,-21.20186 8.73018,-8.73019 21.20187,-8.73019 12.47168,0 21.20186,8.73019 8.73018,8.73018 8.73018,21.20186 0,12.47169 -8.73018,21.20187 -8.73018,8.73018 -21.20186,8.73018 z m -59.8641,59.86409 v -19.95469 q 0,-4.78082 2.59827,-9.04198 2.59827,-4.26116 7.17122,-7.17121 11.43238,-6.65157 24.21586,-10.18522 12.78347,-3.53364 25.87875,-3.53364 13.09527,0 25.87874,3.53364 12.78349,3.53365 24.21586,10.18522 4.57295,2.70219 7.17122,7.06728 2.59827,4.36509 2.59827,9.14591 v 19.95469 z" id="path454" style="stroke-width:0.5" />
  <path d="m 323.30778,-120.00001 v -38.07675 h 137.65386 v -177.11547 q -60.89399,-10.64363 -106.68711,-51.44738 -45.79425,-40.80262 -62.23612,-100.9755 -71.2215,-8.2215 -121.63049,-56.72588 Q 120,-592.84649 120,-662.53799 v -46.84725 q 0,-14.97037 11.26462,-26.523 11.2635,-11.55375 26.81212,-11.55375 h 127.61554 v -92.538 h 388.61547 v 92.538 h 127.61547 q 15.54861,0 26.81213,11.55375 11.26462,11.55263 11.26462,26.523 v 46.84725 q 0,69.6915 -50.40786,118.197 -50.409,48.50438 -121.63049,56.72588 -16.44188,60.17288 -62.23612,100.9755 -45.79312,40.80375 -106.68711,51.44738 v 177.11547 h 137.65384 v 38.07675 z m -37.6155,-407.88447 V -709.38523 H 158.07674 v 46.84725 q 0,53.19224 37.00918,91.19701 37.01025,38.00474 90.60636,43.45649 z m 194.30773,154.9035 q 64.67287,0 109.58624,-45 44.91337,-44.99999 44.91337,-109.67287 V -801.92324 H 325.50041 v 274.26939 q 0,64.67288 44.91336,109.67287 44.91337,45 109.58624,45 z m 194.30774,-154.9035 q 53.59611,-5.45175 90.60636,-43.45649 37.00911,-38.00476 37.00911,-91.19701 v -46.84725 H 674.30775 Z m -194.30774,-59.65425 z" id="path243" style="stroke-width:1" />
</svg>
